<svg xmlns="http://www.w3.org/2000/svg" version="1.1" xmlns:xlink="http://www.w3.org/1999/xlink" width="512" height="512" x="0" y="0" viewBox="0 0 512.001 512" style="enable-background:new 0 0 512 512" xml:space="preserve" class=""><g><g fill="#fed22b"><path d="M352.547 342.016h-77.215l-38.61 66.87 36.512 63.243a7.256 7.256 0 0 0 6.286 3.629h68.835a7.256 7.256 0 0 0 6.286-3.63l36.511-63.241zM236.668 141.402h-77.215l-38.61 66.868 38.61 66.87h77.215l38.61-66.87zm0 0" fill="#fed22b" opacity="1" data-original="#fed22b" class=""></path><path d="M120.875 74.531H47.848a7.26 7.26 0 0 0-6.285 3.625L7.145 137.773a7.268 7.268 0 0 0 0 7.254L43.66 208.27h77.215l38.605-66.872zm0 0" fill="#fed22b" opacity="1" data-original="#fed22b" class=""></path></g><path fill="#fdc202" d="m128.14 195.68-7.269 12.59h-77.21L7.144 145.023a7.268 7.268 0 0 1 0-7.253l34.421-59.61a7.256 7.256 0 0 1 6.286-3.629h10.656L28.96 125.715a6.191 6.191 0 0 0 0 6.18l35.035 60.695a6.178 6.178 0 0 0 5.352 3.09zm0 0" opacity="1" data-original="#fdc202"></path><path fill="#fed22b" d="M120.875 208.27H43.66L7.145 271.512a7.275 7.275 0 0 0 0 7.258l34.418 59.613a7.256 7.256 0 0 0 6.285 3.629h73.027l38.605-66.871zm0 0" opacity="1" data-original="#fed22b" class=""></path><path fill="#fdc202" d="m128.14 329.422-7.269 12.59h-73.02a7.256 7.256 0 0 1-6.285-3.63L7.145 278.767a7.275 7.275 0 0 1 0-7.258l36.515-63.235h14.848L28.96 259.457a6.184 6.184 0 0 0 0 6.176l35.035 60.699a6.186 6.186 0 0 0 5.352 3.09zm0 0" opacity="1" data-original="#fdc202"></path><path fill="#fed22b" d="M348.355 74.531h-73.023l-38.61 66.867 38.61 66.872h77.215l36.512-63.243a7.249 7.249 0 0 0 0-7.254L354.64 78.156a7.26 7.26 0 0 0-6.286-3.625zm0 0" opacity="1" data-original="#fed22b" class=""></path><path fill="#fdc202" d="m359.813 195.68-7.27 12.59h-77.211l-38.61-66.875 38.61-66.864h14.848l-29.547 51.184a6.191 6.191 0 0 0 0 6.18l35.035 60.695a6.186 6.186 0 0 0 5.352 3.09zm0 0" opacity="1" data-original="#fdc202"></path><path fill="#fed22b" d="M352.547 208.27h-77.215l-38.61 66.87 38.61 66.872h77.215l38.61-66.871zm0 0" opacity="1" data-original="#fed22b" class=""></path><path fill="#fdc202" d="m359.813 329.422-7.27 12.59h-77.211l-38.61-66.875 38.61-66.864h14.848l-29.547 51.184a6.184 6.184 0 0 0 0 6.176l35.035 60.699a6.186 6.186 0 0 0 5.352 3.09zm0 0" opacity="1" data-original="#fdc202"></path><path fill="#fed22b" d="M464.152 275.145h-73.027l-38.605 66.87 38.605 66.872h73.027a7.256 7.256 0 0 0 6.285-3.63l34.418-59.612a7.275 7.275 0 0 0 0-7.258l-34.418-59.614a7.269 7.269 0 0 0-6.285-3.628zm0 0" opacity="1" data-original="#fed22b" class=""></path><path fill="#fdc202" d="m475.61 396.297-5.176 8.96a7.256 7.256 0 0 1-6.286 3.63h-73.02l-38.608-66.875 38.609-66.864h14.848l-29.547 51.184a6.174 6.174 0 0 0 0 6.176l35.035 60.699a6.175 6.175 0 0 0 5.348 3.09zM359.813 463.168l-5.176 8.96a7.256 7.256 0 0 1-6.285 3.63h-68.829a7.256 7.256 0 0 1-6.285-3.63l-36.515-63.245 38.609-66.867h14.848l-29.547 51.187a6.184 6.184 0 0 0 0 6.176l35.035 60.7a6.186 6.186 0 0 0 5.352 3.089zm0 0" opacity="1" data-original="#fdc202"></path><path fill="#fed22b" d="M232.48 7.66h-68.835a7.256 7.256 0 0 0-6.286 3.63L120.848 74.53l38.605 66.871h77.219l38.605-66.87-36.511-63.243a7.26 7.26 0 0 0-6.286-3.629zm0 0" opacity="1" data-original="#fed22b" class=""></path><path fill="#fdc202" d="m243.938 128.813-7.274 12.59h-77.207l-38.613-66.876 36.515-63.238a7.256 7.256 0 0 1 6.286-3.629h10.66l-29.547 51.188a6.165 6.165 0 0 0 0 6.175l35.031 60.7a6.186 6.186 0 0 0 5.352 3.09zm0 0" opacity="1" data-original="#fdc202"></path><path fill="#fdc202" d="m243.938 262.55-7.274 12.59h-77.207l-38.613-66.874 38.613-66.864h14.848l-29.547 51.184a6.172 6.172 0 0 0 0 6.18l35.031 60.695a6.186 6.186 0 0 0 5.352 3.09zm0 0" opacity="1" data-original="#fdc202"></path><path fill="#fed22b" d="M236.668 275.14h-77.215l-38.61 66.872 36.516 63.242a7.25 7.25 0 0 0 6.282 3.629h73.027l38.61-66.871zm0 0" opacity="1" data-original="#fed22b" class=""></path><path fill="#fdc202" d="m243.938 396.293-7.274 12.59h-73.02a7.256 7.256 0 0 1-6.285-3.63l-36.515-63.245 38.613-66.867h14.848l-29.547 51.187a6.165 6.165 0 0 0 0 6.176l35.031 60.7a6.186 6.186 0 0 0 5.352 3.089zm0 0" opacity="1" data-original="#fdc202"></path><path d="M479.84 279.742c-4.363-7.562-12.5-12.262-21.23-12.262-63.153 0-59.497-.257-63.438.688-1.156-3.922.195-1.043-31.129-55.297a24.225 24.225 0 0 0-3.453-4.601c2.8-2.95.715.144 32.332-54.614a24.536 24.536 0 0 0 0-24.515l-8.574-14.844a7.658 7.658 0 0 0-10.461-2.805 7.658 7.658 0 0 0-2.805 10.461l8.574 14.848a9.212 9.212 0 0 1 0 9.199l-28.875 50.012a9.23 9.23 0 0 1-7.969 4.597c-68.34 0-59.398 1.106-65.257-3.636-7.801-15.032-30.567-50.493-30.567-55.575 0-3.414-1.18-.421 30.11-54.609a9.22 9.22 0 0 1 7.965-4.602h57.753a9.22 9.22 0 0 1 7.965 4.602l4.989 8.637c2.113 3.664 6.8 4.914 10.46 2.8a7.653 7.653 0 0 0 2.801-10.46l-4.984-8.637c-4.363-7.563-12.5-12.258-21.23-12.258h-57.754c-1.961 0-3.891.25-5.758.703a24.2 24.2 0 0 0-2.262-5.3l-28.875-50.016C243.801 4.699 235.668 0 226.938 0h-57.754c-8.73 0-16.868 4.7-21.23 12.258l-28.876 50.015a24.323 24.323 0 0 0-2.254 5.286 24.183 24.183 0 0 0-5.683-.688H53.39c-8.73 0-16.868 4.7-21.23 12.258C.917 133.242 0 132.672 0 141.402c0 8.254 3.281 12.246 10.594 24.914a7.656 7.656 0 0 0 6.64 3.832c5.84 0 9.586-6.363 6.625-11.488-7.683-13.312-8.543-14.039-8.543-17.258 0-3.398-1.246-.304 30.11-54.613a9.223 9.223 0 0 1 7.965-4.602h57.75a9.212 9.212 0 0 1 7.828 4.395c.039.07.07.14.11.207 31.245 54.117 29.515 51.652 32.331 54.613-3.504 3.692-3.664 4.961-32.332 54.614-.039.066-.07.136-.11.207a9.218 9.218 0 0 1-7.827 4.39H53.39a9.22 9.22 0 0 1-7.965-4.597l-6.25-10.825a7.658 7.658 0 0 0-10.461-2.804 7.658 7.658 0 0 0-2.805 10.46c6.719 11.633 7.121 12.708 9.703 15.423-2.8 2.949-.722-.13-32.328 54.613-4.367 7.562-4.367 16.957 0 24.515l28.875 50.016c4.363 7.559 12.5 12.258 21.23 12.258 63.184 0 59.493.258 63.434-.684 1.16 3.918-.195 1.04 31.133 55.297 4.363 7.559 12.496 12.258 21.23 12.258 63.235 0 59.524.266 63.512-.703 1.153 3.902-.457.597 31.133 55.312 4.367 7.559 12.5 12.258 21.23 12.258h57.754c8.73 0 16.868-4.7 21.23-12.258 31.638-54.8 29.977-51.402 31.13-55.297 3.937.946.226.688 63.433.688 8.735 0 16.868-4.7 21.23-12.258l6.962-12.055a7.658 7.658 0 0 0-2.805-10.46 7.658 7.658 0 0 0-10.46 2.804l-6.962 12.055a9.22 9.22 0 0 1-7.965 4.598h-57.75a9.164 9.164 0 0 1-7.937-4.606c-33.129-57.375-28.41-49.215-29.016-50.238-1.476-2.735-1.554-6.035.14-8.969 33.079-57.297 28.423-49.219 28.99-50.223a9.207 9.207 0 0 1 7.823-4.39h57.75a9.215 9.215 0 0 1 7.965 4.601c31.274 54.164 30.11 51.192 30.11 54.614 0 3.18-.782 3.812-7.832 16.027a7.659 7.659 0 0 0 13.265 7.656c6.75-11.691 9.883-15.605 9.883-23.683 0-8.676-.781-7.926-32.16-62.274zM132.37 79.13c-.039-.07-.086-.137-.129-.207a9.222 9.222 0 0 1 .102-8.992l28.875-50.016a9.224 9.224 0 0 1 7.965-4.598h57.754a9.224 9.224 0 0 1 7.964 4.602l28.875 50.012a9.231 9.231 0 0 1 0 9.199l-28.875 50.016a9.224 9.224 0 0 1-7.964 4.597h-57.754a9.224 9.224 0 0 1-7.965-4.597c-.024-.047-10.047-17.458-28.848-50.016zm0 124.543c33.027-57.207 28.434-49.238 28.992-50.23a9.215 9.215 0 0 1 7.82-4.383h57.755a9.224 9.224 0 0 1 7.964 4.597l28.875 50.016a9.231 9.231 0 0 1 0 9.2l-28.875 50.01a9.228 9.228 0 0 1-7.964 4.602h-57.754a9.175 9.175 0 0 1-7.938-4.601c-33.266-57.617-28.375-49.153-29.004-50.223a9.16 9.16 0 0 1 .13-8.988zM118.97 329.965a9.223 9.223 0 0 1-7.828 4.387H53.39a9.22 9.22 0 0 1-7.965-4.598L16.55 279.738a9.205 9.205 0 0 1 0-9.195l28.875-50.016a9.22 9.22 0 0 1 7.965-4.597h57.75a9.162 9.162 0 0 1 7.937 4.597c33.266 57.618 28.375 49.153 29.008 50.223a9.151 9.151 0 0 1-.133 8.988c-33.074 57.29-28.418 49.219-28.984 50.227zm107.969 71.258h-57.754a9.224 9.224 0 0 1-7.965-4.598l-28.875-50.016a9.171 9.171 0 0 1 .027-9.199c33.074-57.289 28.422-49.219 28.988-50.222a9.216 9.216 0 0 1 7.825-4.391h57.754a9.232 9.232 0 0 1 7.964 4.601l28.875 50.012a9.231 9.231 0 0 1 0 9.2l-28.875 50.015a9.224 9.224 0 0 1-7.964 4.598zm152.69 3.058a9.175 9.175 0 0 1 .028 9.196l-28.875 50.015a9.23 9.23 0 0 1-7.968 4.598h-57.75a9.224 9.224 0 0 1-7.965-4.598l-28.875-50.015a9.212 9.212 0 0 1 0-9.2l28.875-50.011a9.211 9.211 0 0 1 7.965-4.598h57.792a9.158 9.158 0 0 1 7.895 4.602zm0-124.543c-33.144 57.41-28.413 49.203-28.987 50.227a9.209 9.209 0 0 1-7.825 4.383c-61.863 0-56.949.004-57.793.004a9.233 9.233 0 0 1-7.925-4.598l-28.875-50.012a9.231 9.231 0 0 1 0-9.199l28.875-50.016a9.224 9.224 0 0 1 7.964-4.597h57.754a9.224 9.224 0 0 1 7.965 4.597l28.875 50.016c1.563 2.703 1.707 6.184-.027 9.195zm0 0" fill="#000000" opacity="1" data-original="#000000"></path></g></svg>