<svg xmlns="http://www.w3.org/2000/svg" version="1.1" xmlns:xlink="http://www.w3.org/1999/xlink" width="512" height="512" x="0" y="0" viewBox="0 0 512 512" style="enable-background:new 0 0 512 512" xml:space="preserve" class=""><g><path d="M334.1 118.6 265 35.2c-2.2-2.7-5.5-4.2-9-4.2s-6.8 1.5-9 4.2l-69.1 83.4c-4.1 5-3.4 12.3 1.5 16.4 5 4.1 12.3 3.4 16.4-1.5L244.3 75v394.3c0 6.4 5.2 11.7 11.7 11.7 6.4 0 11.7-5.2 11.7-11.7V75l48.5 58.5c2.3 2.8 5.6 4.2 9 4.2 2.6 0 5.3-.9 7.4-2.7 4.9-4.1 5.6-11.5 1.5-16.4z" fill="#ff4500" opacity="1" data-original="#000000" class=""></path></g></svg>